<mxfile host="app.diagrams.net" modified="2023-02-13T14:08:19.189Z" agent="5.0 (Macintosh; Intel Mac OS X 10_15_7) AppleWebKit/537.36 (KHTML, like Gecko) Chrome/109.0.0.0 Safari/537.36" version="20.8.5" etag="enZEO728uXYpiNgOAZqn" type="github">
  <diagram id="RZw11U9Z0QufpU0lCv-w" name="Page-1">
    <mxGraphModel dx="516" dy="350" grid="1" gridSize="10" guides="1" tooltips="1" connect="1" arrows="1" fold="1" page="1" pageScale="1" pageWidth="850" pageHeight="1100" math="1" shadow="0">
      <root>
        <mxCell id="0" />
        <mxCell id="1" parent="0" />
        <mxCell id="n8CdIjWMTedt_Ckutx07-6" style="edgeStyle=orthogonalEdgeStyle;rounded=0;orthogonalLoop=1;jettySize=auto;html=1;exitX=0.5;exitY=0;exitDx=0;exitDy=0;entryX=0.5;entryY=1;entryDx=0;entryDy=0;endArrow=openThin;endFill=0;" edge="1" parent="1" source="n8CdIjWMTedt_Ckutx07-1" target="n8CdIjWMTedt_Ckutx07-2">
          <mxGeometry relative="1" as="geometry" />
        </mxCell>
        <mxCell id="n8CdIjWMTedt_Ckutx07-1" value="Embedding Layer" style="rounded=0;whiteSpace=wrap;html=1;" vertex="1" parent="1">
          <mxGeometry x="360" y="380" width="120" height="20" as="geometry" />
        </mxCell>
        <mxCell id="n8CdIjWMTedt_Ckutx07-7" style="edgeStyle=orthogonalEdgeStyle;rounded=0;orthogonalLoop=1;jettySize=auto;html=1;exitX=0.5;exitY=0;exitDx=0;exitDy=0;entryX=0.5;entryY=1;entryDx=0;entryDy=0;endArrow=openThin;endFill=0;" edge="1" parent="1" source="n8CdIjWMTedt_Ckutx07-2" target="n8CdIjWMTedt_Ckutx07-3">
          <mxGeometry relative="1" as="geometry" />
        </mxCell>
        <mxCell id="n8CdIjWMTedt_Ckutx07-2" value="LSTM-1" style="rounded=0;whiteSpace=wrap;html=1;" vertex="1" parent="1">
          <mxGeometry x="360" y="320" width="120" height="20" as="geometry" />
        </mxCell>
        <mxCell id="n8CdIjWMTedt_Ckutx07-8" style="edgeStyle=orthogonalEdgeStyle;rounded=0;orthogonalLoop=1;jettySize=auto;html=1;exitX=0.5;exitY=0;exitDx=0;exitDy=0;entryX=0.498;entryY=1.13;entryDx=0;entryDy=0;entryPerimeter=0;endArrow=openThin;endFill=0;" edge="1" parent="1" source="n8CdIjWMTedt_Ckutx07-3" target="n8CdIjWMTedt_Ckutx07-4">
          <mxGeometry relative="1" as="geometry" />
        </mxCell>
        <mxCell id="n8CdIjWMTedt_Ckutx07-3" value="LSTM-2" style="rounded=0;whiteSpace=wrap;html=1;" vertex="1" parent="1">
          <mxGeometry x="360" y="280" width="120" height="20" as="geometry" />
        </mxCell>
        <mxCell id="n8CdIjWMTedt_Ckutx07-9" style="edgeStyle=orthogonalEdgeStyle;rounded=0;orthogonalLoop=1;jettySize=auto;html=1;exitX=0.5;exitY=0;exitDx=0;exitDy=0;entryX=0.5;entryY=1;entryDx=0;entryDy=0;endArrow=openThin;endFill=0;" edge="1" parent="1" source="n8CdIjWMTedt_Ckutx07-4" target="n8CdIjWMTedt_Ckutx07-5">
          <mxGeometry relative="1" as="geometry" />
        </mxCell>
        <mxCell id="n8CdIjWMTedt_Ckutx07-4" value="LSTM-3" style="rounded=0;whiteSpace=wrap;html=1;" vertex="1" parent="1">
          <mxGeometry x="360" y="240" width="120" height="20" as="geometry" />
        </mxCell>
        <mxCell id="n8CdIjWMTedt_Ckutx07-22" style="edgeStyle=orthogonalEdgeStyle;rounded=0;orthogonalLoop=1;jettySize=auto;html=1;exitX=1;exitY=0.5;exitDx=0;exitDy=0;entryX=0;entryY=1;entryDx=0;entryDy=0;endArrow=openThin;endFill=0;" edge="1" parent="1" source="n8CdIjWMTedt_Ckutx07-5" target="n8CdIjWMTedt_Ckutx07-19">
          <mxGeometry relative="1" as="geometry">
            <Array as="points">
              <mxPoint x="500" y="210" />
              <mxPoint x="500" y="360" />
              <mxPoint x="572" y="360" />
            </Array>
          </mxGeometry>
        </mxCell>
        <mxCell id="n8CdIjWMTedt_Ckutx07-5" value="LSTM-4" style="rounded=0;whiteSpace=wrap;html=1;" vertex="1" parent="1">
          <mxGeometry x="360" y="200" width="120" height="20" as="geometry" />
        </mxCell>
        <mxCell id="n8CdIjWMTedt_Ckutx07-20" style="edgeStyle=orthogonalEdgeStyle;rounded=0;orthogonalLoop=1;jettySize=auto;html=1;exitX=0.5;exitY=0;exitDx=0;exitDy=0;entryX=1;entryY=1;entryDx=0;entryDy=0;endArrow=openThin;endFill=0;" edge="1" parent="1" source="n8CdIjWMTedt_Ckutx07-11" target="n8CdIjWMTedt_Ckutx07-19">
          <mxGeometry relative="1" as="geometry" />
        </mxCell>
        <mxCell id="n8CdIjWMTedt_Ckutx07-11" value="Embedding Layer" style="rounded=0;whiteSpace=wrap;html=1;" vertex="1" parent="1">
          <mxGeometry x="520" y="380" width="120" height="20" as="geometry" />
        </mxCell>
        <mxCell id="n8CdIjWMTedt_Ckutx07-12" style="edgeStyle=orthogonalEdgeStyle;rounded=0;orthogonalLoop=1;jettySize=auto;html=1;exitX=0.5;exitY=0;exitDx=0;exitDy=0;entryX=0.5;entryY=1;entryDx=0;entryDy=0;endArrow=openThin;endFill=0;" edge="1" parent="1" source="n8CdIjWMTedt_Ckutx07-13" target="n8CdIjWMTedt_Ckutx07-15">
          <mxGeometry relative="1" as="geometry" />
        </mxCell>
        <mxCell id="n8CdIjWMTedt_Ckutx07-13" value="LSTM-1" style="rounded=0;whiteSpace=wrap;html=1;" vertex="1" parent="1">
          <mxGeometry x="520" y="320" width="120" height="20" as="geometry" />
        </mxCell>
        <mxCell id="n8CdIjWMTedt_Ckutx07-14" style="edgeStyle=orthogonalEdgeStyle;rounded=0;orthogonalLoop=1;jettySize=auto;html=1;exitX=0.5;exitY=0;exitDx=0;exitDy=0;entryX=0.498;entryY=1.13;entryDx=0;entryDy=0;entryPerimeter=0;endArrow=openThin;endFill=0;" edge="1" parent="1" source="n8CdIjWMTedt_Ckutx07-15" target="n8CdIjWMTedt_Ckutx07-17">
          <mxGeometry relative="1" as="geometry" />
        </mxCell>
        <mxCell id="n8CdIjWMTedt_Ckutx07-15" value="LSTM-2" style="rounded=0;whiteSpace=wrap;html=1;" vertex="1" parent="1">
          <mxGeometry x="520" y="280" width="120" height="20" as="geometry" />
        </mxCell>
        <mxCell id="n8CdIjWMTedt_Ckutx07-16" style="edgeStyle=orthogonalEdgeStyle;rounded=0;orthogonalLoop=1;jettySize=auto;html=1;exitX=0.5;exitY=0;exitDx=0;exitDy=0;entryX=0.5;entryY=1;entryDx=0;entryDy=0;endArrow=openThin;endFill=0;" edge="1" parent="1" source="n8CdIjWMTedt_Ckutx07-17" target="n8CdIjWMTedt_Ckutx07-18">
          <mxGeometry relative="1" as="geometry" />
        </mxCell>
        <mxCell id="n8CdIjWMTedt_Ckutx07-17" value="LSTM-3" style="rounded=0;whiteSpace=wrap;html=1;" vertex="1" parent="1">
          <mxGeometry x="520" y="240" width="120" height="20" as="geometry" />
        </mxCell>
        <mxCell id="n8CdIjWMTedt_Ckutx07-24" style="edgeStyle=orthogonalEdgeStyle;rounded=0;orthogonalLoop=1;jettySize=auto;html=1;exitX=0.5;exitY=0;exitDx=0;exitDy=0;entryX=0.5;entryY=1;entryDx=0;entryDy=0;endArrow=openThin;endFill=0;" edge="1" parent="1" source="n8CdIjWMTedt_Ckutx07-18" target="n8CdIjWMTedt_Ckutx07-23">
          <mxGeometry relative="1" as="geometry" />
        </mxCell>
        <mxCell id="n8CdIjWMTedt_Ckutx07-18" value="LSTM-4" style="rounded=0;whiteSpace=wrap;html=1;" vertex="1" parent="1">
          <mxGeometry x="520" y="200" width="120" height="20" as="geometry" />
        </mxCell>
        <mxCell id="n8CdIjWMTedt_Ckutx07-21" style="edgeStyle=orthogonalEdgeStyle;rounded=0;orthogonalLoop=1;jettySize=auto;html=1;exitX=0.5;exitY=0;exitDx=0;exitDy=0;entryX=0.5;entryY=1;entryDx=0;entryDy=0;endArrow=openThin;endFill=0;" edge="1" parent="1" source="n8CdIjWMTedt_Ckutx07-19" target="n8CdIjWMTedt_Ckutx07-13">
          <mxGeometry relative="1" as="geometry" />
        </mxCell>
        <mxCell id="n8CdIjWMTedt_Ckutx07-19" value="" style="shape=sumEllipse;perimeter=ellipsePerimeter;whiteSpace=wrap;html=1;backgroundOutline=1;rotation=45;" vertex="1" parent="1">
          <mxGeometry x="572.5" y="352" width="15" height="15" as="geometry" />
        </mxCell>
        <mxCell id="n8CdIjWMTedt_Ckutx07-23" value="Output Layer" style="rounded=0;whiteSpace=wrap;html=1;" vertex="1" parent="1">
          <mxGeometry x="520" y="160" width="120" height="20" as="geometry" />
        </mxCell>
        <mxCell id="n8CdIjWMTedt_Ckutx07-27" value="$$\boldsymbol x$$" style="text;html=1;align=center;verticalAlign=middle;resizable=0;points=[];autosize=1;strokeColor=none;fillColor=none;" vertex="1" parent="1">
          <mxGeometry x="330" y="405" width="120" height="30" as="geometry" />
        </mxCell>
      </root>
    </mxGraphModel>
  </diagram>
</mxfile>
